<?xml version="1.0" standalone="no"?>
<svg xmlns:xlink="http://www.w3.org/1999/xlink" id="wave" style="transform:rotate(0deg); transition: 0.3s" viewBox="0 0 1440 210" version="1.1" xmlns="http://www.w3.org/2000/svg"><defs><linearGradient id="sw-gradient-0" x1="0" x2="0" y1="1" y2="0"><stop stop-color="rgba(255, 255, 255, 1)" offset="0%"/><stop stop-color="rgba(255, 255, 255, 1)" offset="100%"/></linearGradient></defs><path style="transform:translate(0, 0px); opacity:1" fill="url(#sw-gradient-0)" d="M0,126L40,108.5C80,91,160,56,240,63C320,70,400,119,480,119C560,119,640,70,720,73.5C800,77,880,133,960,147C1040,161,1120,133,1200,101.5C1280,70,1360,35,1440,28C1520,21,1600,42,1680,49C1760,56,1840,49,1920,70C2000,91,2080,140,2160,150.5C2240,161,2320,133,2400,119C2480,105,2560,105,2640,94.5C2720,84,2800,63,2880,59.5C2960,56,3040,70,3120,66.5C3200,63,3280,42,3360,42C3440,42,3520,63,3600,73.5C3680,84,3760,84,3840,73.5C3920,63,4000,42,4080,31.5C4160,21,4240,21,4320,17.5C4400,14,4480,7,4560,17.5C4640,28,4720,56,4800,56C4880,56,4960,28,5040,14C5120,0,5200,0,5280,3.5C5360,7,5440,14,5520,28C5600,42,5680,63,5720,73.5L5760,84L5760,210L5720,210C5680,210,5600,210,5520,210C5440,210,5360,210,5280,210C5200,210,5120,210,5040,210C4960,210,4880,210,4800,210C4720,210,4640,210,4560,210C4480,210,4400,210,4320,210C4240,210,4160,210,4080,210C4000,210,3920,210,3840,210C3760,210,3680,210,3600,210C3520,210,3440,210,3360,210C3280,210,3200,210,3120,210C3040,210,2960,210,2880,210C2800,210,2720,210,2640,210C2560,210,2480,210,2400,210C2320,210,2240,210,2160,210C2080,210,2000,210,1920,210C1840,210,1760,210,1680,210C1600,210,1520,210,1440,210C1360,210,1280,210,1200,210C1120,210,1040,210,960,210C880,210,800,210,720,210C640,210,560,210,480,210C400,210,320,210,240,210C160,210,80,210,40,210L0,210Z"/></svg>